<mxfile host="app.diagrams.net" agent="Mozilla/5.0 (X11; Linux x86_64; rv:100.0) Gecko/20100101 Firefox/100.0" version="26.0.14">
  <diagram name="Pagina-1" id="GTThBBZZqZZXLvh1CAOA">
    <mxGraphModel dx="1364" dy="795" grid="1" gridSize="10" guides="1" tooltips="1" connect="1" arrows="1" fold="1" page="1" pageScale="1" pageWidth="827" pageHeight="1169" math="0" shadow="0">
      <root>
        <mxCell id="0" />
        <mxCell id="1" parent="0" />
        <mxCell id="ET6uv3cH0b9Gmi0lWct8-3" style="edgeStyle=orthogonalEdgeStyle;rounded=0;orthogonalLoop=1;jettySize=auto;html=1;" edge="1" parent="1" source="ET6uv3cH0b9Gmi0lWct8-1" target="ET6uv3cH0b9Gmi0lWct8-2">
          <mxGeometry relative="1" as="geometry" />
        </mxCell>
        <mxCell id="ET6uv3cH0b9Gmi0lWct8-1" value="START" style="ellipse;whiteSpace=wrap;html=1;" vertex="1" parent="1">
          <mxGeometry x="320" width="120" height="80" as="geometry" />
        </mxCell>
        <mxCell id="ET6uv3cH0b9Gmi0lWct8-5" style="edgeStyle=orthogonalEdgeStyle;rounded=0;orthogonalLoop=1;jettySize=auto;html=1;entryX=0.5;entryY=0;entryDx=0;entryDy=0;" edge="1" parent="1" source="ET6uv3cH0b9Gmi0lWct8-2" target="ET6uv3cH0b9Gmi0lWct8-4">
          <mxGeometry relative="1" as="geometry" />
        </mxCell>
        <mxCell id="ET6uv3cH0b9Gmi0lWct8-2" value="Read n" style="shape=parallelogram;perimeter=parallelogramPerimeter;whiteSpace=wrap;html=1;fixedSize=1;" vertex="1" parent="1">
          <mxGeometry x="320" y="120" width="120" height="60" as="geometry" />
        </mxCell>
        <mxCell id="ET6uv3cH0b9Gmi0lWct8-6" style="edgeStyle=orthogonalEdgeStyle;rounded=0;orthogonalLoop=1;jettySize=auto;html=1;entryX=1;entryY=0.25;entryDx=0;entryDy=0;" edge="1" parent="1" source="ET6uv3cH0b9Gmi0lWct8-4" target="ET6uv3cH0b9Gmi0lWct8-2">
          <mxGeometry relative="1" as="geometry">
            <Array as="points">
              <mxPoint x="520" y="260" />
              <mxPoint x="520" y="136" />
            </Array>
          </mxGeometry>
        </mxCell>
        <mxCell id="ET6uv3cH0b9Gmi0lWct8-7" value="FALSE" style="edgeLabel;html=1;align=center;verticalAlign=middle;resizable=0;points=[];" vertex="1" connectable="0" parent="ET6uv3cH0b9Gmi0lWct8-6">
          <mxGeometry x="-0.7371" y="-1" relative="1" as="geometry">
            <mxPoint y="-1" as="offset" />
          </mxGeometry>
        </mxCell>
        <mxCell id="ET6uv3cH0b9Gmi0lWct8-8" style="edgeStyle=orthogonalEdgeStyle;rounded=0;orthogonalLoop=1;jettySize=auto;html=1;" edge="1" parent="1" source="ET6uv3cH0b9Gmi0lWct8-4">
          <mxGeometry relative="1" as="geometry">
            <mxPoint x="380" y="360" as="targetPoint" />
          </mxGeometry>
        </mxCell>
        <mxCell id="ET6uv3cH0b9Gmi0lWct8-9" value="TRUE" style="edgeLabel;html=1;align=center;verticalAlign=middle;resizable=0;points=[];" vertex="1" connectable="0" parent="ET6uv3cH0b9Gmi0lWct8-8">
          <mxGeometry x="-0.1406" y="2" relative="1" as="geometry">
            <mxPoint x="-2" y="4" as="offset" />
          </mxGeometry>
        </mxCell>
        <mxCell id="ET6uv3cH0b9Gmi0lWct8-4" value="&lt;div&gt;n &amp;gt; 0 AND&lt;/div&gt;&lt;div&gt;&amp;nbsp;n % 1 == 0&lt;/div&gt;" style="rhombus;whiteSpace=wrap;html=1;" vertex="1" parent="1">
          <mxGeometry x="320" y="220" width="120" height="80" as="geometry" />
        </mxCell>
        <mxCell id="ET6uv3cH0b9Gmi0lWct8-11" style="edgeStyle=orthogonalEdgeStyle;rounded=0;orthogonalLoop=1;jettySize=auto;html=1;" edge="1" parent="1" source="ET6uv3cH0b9Gmi0lWct8-10">
          <mxGeometry relative="1" as="geometry">
            <mxPoint x="520" y="500" as="targetPoint" />
          </mxGeometry>
        </mxCell>
        <mxCell id="ET6uv3cH0b9Gmi0lWct8-12" value="TRUE" style="edgeLabel;html=1;align=center;verticalAlign=middle;resizable=0;points=[];" vertex="1" connectable="0" parent="ET6uv3cH0b9Gmi0lWct8-11">
          <mxGeometry x="-0.0559" y="2" relative="1" as="geometry">
            <mxPoint y="2" as="offset" />
          </mxGeometry>
        </mxCell>
        <mxCell id="ET6uv3cH0b9Gmi0lWct8-13" style="edgeStyle=orthogonalEdgeStyle;rounded=0;orthogonalLoop=1;jettySize=auto;html=1;" edge="1" parent="1" source="ET6uv3cH0b9Gmi0lWct8-10">
          <mxGeometry relative="1" as="geometry">
            <mxPoint x="380" y="600" as="targetPoint" />
          </mxGeometry>
        </mxCell>
        <mxCell id="ET6uv3cH0b9Gmi0lWct8-14" value="FALSE" style="edgeLabel;html=1;align=center;verticalAlign=middle;resizable=0;points=[];" vertex="1" connectable="0" parent="ET6uv3cH0b9Gmi0lWct8-13">
          <mxGeometry x="-0.2728" relative="1" as="geometry">
            <mxPoint as="offset" />
          </mxGeometry>
        </mxCell>
        <mxCell id="ET6uv3cH0b9Gmi0lWct8-10" value="n == 1" style="rhombus;whiteSpace=wrap;html=1;" vertex="1" parent="1">
          <mxGeometry x="320" y="460" width="120" height="80" as="geometry" />
        </mxCell>
        <mxCell id="ET6uv3cH0b9Gmi0lWct8-15" style="edgeStyle=orthogonalEdgeStyle;rounded=0;orthogonalLoop=1;jettySize=auto;html=1;" edge="1" parent="1" source="ET6uv3cH0b9Gmi0lWct8-19">
          <mxGeometry relative="1" as="geometry">
            <mxPoint x="520" y="640" as="targetPoint" />
          </mxGeometry>
        </mxCell>
        <mxCell id="ET6uv3cH0b9Gmi0lWct8-16" value="TRUE" style="edgeLabel;html=1;align=center;verticalAlign=middle;resizable=0;points=[];" vertex="1" connectable="0" parent="ET6uv3cH0b9Gmi0lWct8-15">
          <mxGeometry x="-0.0559" y="2" relative="1" as="geometry">
            <mxPoint y="2" as="offset" />
          </mxGeometry>
        </mxCell>
        <mxCell id="ET6uv3cH0b9Gmi0lWct8-17" style="edgeStyle=orthogonalEdgeStyle;rounded=0;orthogonalLoop=1;jettySize=auto;html=1;" edge="1" parent="1" source="ET6uv3cH0b9Gmi0lWct8-19">
          <mxGeometry relative="1" as="geometry">
            <mxPoint x="380" y="740" as="targetPoint" />
          </mxGeometry>
        </mxCell>
        <mxCell id="ET6uv3cH0b9Gmi0lWct8-18" value="FALSE" style="edgeLabel;html=1;align=center;verticalAlign=middle;resizable=0;points=[];" vertex="1" connectable="0" parent="ET6uv3cH0b9Gmi0lWct8-17">
          <mxGeometry x="-0.2728" relative="1" as="geometry">
            <mxPoint as="offset" />
          </mxGeometry>
        </mxCell>
        <mxCell id="ET6uv3cH0b9Gmi0lWct8-19" value="n == 2" style="rhombus;whiteSpace=wrap;html=1;" vertex="1" parent="1">
          <mxGeometry x="320" y="600" width="120" height="80" as="geometry" />
        </mxCell>
        <mxCell id="ET6uv3cH0b9Gmi0lWct8-20" style="edgeStyle=orthogonalEdgeStyle;rounded=0;orthogonalLoop=1;jettySize=auto;html=1;" edge="1" parent="1" source="ET6uv3cH0b9Gmi0lWct8-24">
          <mxGeometry relative="1" as="geometry">
            <mxPoint x="520" y="780" as="targetPoint" />
          </mxGeometry>
        </mxCell>
        <mxCell id="ET6uv3cH0b9Gmi0lWct8-21" value="TRUE" style="edgeLabel;html=1;align=center;verticalAlign=middle;resizable=0;points=[];" vertex="1" connectable="0" parent="ET6uv3cH0b9Gmi0lWct8-20">
          <mxGeometry x="-0.0559" y="2" relative="1" as="geometry">
            <mxPoint y="2" as="offset" />
          </mxGeometry>
        </mxCell>
        <mxCell id="ET6uv3cH0b9Gmi0lWct8-22" style="edgeStyle=orthogonalEdgeStyle;rounded=0;orthogonalLoop=1;jettySize=auto;html=1;" edge="1" parent="1" source="ET6uv3cH0b9Gmi0lWct8-24">
          <mxGeometry relative="1" as="geometry">
            <mxPoint x="380" y="880" as="targetPoint" />
          </mxGeometry>
        </mxCell>
        <mxCell id="ET6uv3cH0b9Gmi0lWct8-23" value="FALSE" style="edgeLabel;html=1;align=center;verticalAlign=middle;resizable=0;points=[];" vertex="1" connectable="0" parent="ET6uv3cH0b9Gmi0lWct8-22">
          <mxGeometry x="-0.2728" relative="1" as="geometry">
            <mxPoint as="offset" />
          </mxGeometry>
        </mxCell>
        <mxCell id="ET6uv3cH0b9Gmi0lWct8-24" value="n == 3" style="rhombus;whiteSpace=wrap;html=1;" vertex="1" parent="1">
          <mxGeometry x="320" y="740" width="120" height="80" as="geometry" />
        </mxCell>
        <mxCell id="ET6uv3cH0b9Gmi0lWct8-33" style="edgeStyle=orthogonalEdgeStyle;rounded=0;orthogonalLoop=1;jettySize=auto;html=1;entryX=0.5;entryY=0;entryDx=0;entryDy=0;" edge="1" parent="1" source="ET6uv3cH0b9Gmi0lWct8-25" target="ET6uv3cH0b9Gmi0lWct8-31">
          <mxGeometry relative="1" as="geometry" />
        </mxCell>
        <mxCell id="ET6uv3cH0b9Gmi0lWct8-25" value="Write n &quot;st&quot;" style="shape=parallelogram;perimeter=parallelogramPerimeter;whiteSpace=wrap;html=1;fixedSize=1;" vertex="1" parent="1">
          <mxGeometry x="510" y="470" width="120" height="60" as="geometry" />
        </mxCell>
        <mxCell id="ET6uv3cH0b9Gmi0lWct8-27" style="edgeStyle=orthogonalEdgeStyle;rounded=0;orthogonalLoop=1;jettySize=auto;html=1;entryX=0.5;entryY=0;entryDx=0;entryDy=0;" edge="1" parent="1" source="ET6uv3cH0b9Gmi0lWct8-26" target="ET6uv3cH0b9Gmi0lWct8-10">
          <mxGeometry relative="1" as="geometry" />
        </mxCell>
        <mxCell id="ET6uv3cH0b9Gmi0lWct8-26" value="Write &quot;Finishing position:&quot; n" style="shape=parallelogram;perimeter=parallelogramPerimeter;whiteSpace=wrap;html=1;fixedSize=1;" vertex="1" parent="1">
          <mxGeometry x="300" y="360" width="160" height="60" as="geometry" />
        </mxCell>
        <mxCell id="ET6uv3cH0b9Gmi0lWct8-34" style="edgeStyle=orthogonalEdgeStyle;rounded=0;orthogonalLoop=1;jettySize=auto;html=1;entryX=0;entryY=0.5;entryDx=0;entryDy=0;" edge="1" parent="1" source="ET6uv3cH0b9Gmi0lWct8-28" target="ET6uv3cH0b9Gmi0lWct8-31">
          <mxGeometry relative="1" as="geometry" />
        </mxCell>
        <mxCell id="ET6uv3cH0b9Gmi0lWct8-28" value="Write n &quot;nd&quot;" style="shape=parallelogram;perimeter=parallelogramPerimeter;whiteSpace=wrap;html=1;fixedSize=1;" vertex="1" parent="1">
          <mxGeometry x="510" y="610" width="120" height="60" as="geometry" />
        </mxCell>
        <mxCell id="ET6uv3cH0b9Gmi0lWct8-36" style="edgeStyle=orthogonalEdgeStyle;rounded=0;orthogonalLoop=1;jettySize=auto;html=1;entryX=0;entryY=0.5;entryDx=0;entryDy=0;" edge="1" parent="1" source="ET6uv3cH0b9Gmi0lWct8-29" target="ET6uv3cH0b9Gmi0lWct8-35">
          <mxGeometry relative="1" as="geometry" />
        </mxCell>
        <mxCell id="ET6uv3cH0b9Gmi0lWct8-29" value="Write n &quot;rd&quot;" style="shape=parallelogram;perimeter=parallelogramPerimeter;whiteSpace=wrap;html=1;fixedSize=1;" vertex="1" parent="1">
          <mxGeometry x="510" y="750" width="120" height="60" as="geometry" />
        </mxCell>
        <mxCell id="ET6uv3cH0b9Gmi0lWct8-40" style="edgeStyle=orthogonalEdgeStyle;rounded=0;orthogonalLoop=1;jettySize=auto;html=1;entryX=0;entryY=0.5;entryDx=0;entryDy=0;" edge="1" parent="1" source="ET6uv3cH0b9Gmi0lWct8-30" target="ET6uv3cH0b9Gmi0lWct8-38">
          <mxGeometry relative="1" as="geometry" />
        </mxCell>
        <mxCell id="ET6uv3cH0b9Gmi0lWct8-30" value="Write n &quot;th&quot;" style="shape=parallelogram;perimeter=parallelogramPerimeter;whiteSpace=wrap;html=1;fixedSize=1;" vertex="1" parent="1">
          <mxGeometry x="320" y="880" width="120" height="60" as="geometry" />
        </mxCell>
        <mxCell id="ET6uv3cH0b9Gmi0lWct8-37" style="edgeStyle=orthogonalEdgeStyle;rounded=0;orthogonalLoop=1;jettySize=auto;html=1;entryX=0.5;entryY=0;entryDx=0;entryDy=0;" edge="1" parent="1" source="ET6uv3cH0b9Gmi0lWct8-31" target="ET6uv3cH0b9Gmi0lWct8-35">
          <mxGeometry relative="1" as="geometry" />
        </mxCell>
        <mxCell id="ET6uv3cH0b9Gmi0lWct8-31" value="" style="ellipse;whiteSpace=wrap;html=1;aspect=fixed;" vertex="1" parent="1">
          <mxGeometry x="670" y="625" width="30" height="30" as="geometry" />
        </mxCell>
        <mxCell id="ET6uv3cH0b9Gmi0lWct8-39" style="edgeStyle=orthogonalEdgeStyle;rounded=0;orthogonalLoop=1;jettySize=auto;html=1;entryX=0.5;entryY=0;entryDx=0;entryDy=0;" edge="1" parent="1" source="ET6uv3cH0b9Gmi0lWct8-35" target="ET6uv3cH0b9Gmi0lWct8-38">
          <mxGeometry relative="1" as="geometry" />
        </mxCell>
        <mxCell id="ET6uv3cH0b9Gmi0lWct8-35" value="" style="ellipse;whiteSpace=wrap;html=1;aspect=fixed;" vertex="1" parent="1">
          <mxGeometry x="670" y="765" width="30" height="30" as="geometry" />
        </mxCell>
        <mxCell id="ET6uv3cH0b9Gmi0lWct8-41" style="edgeStyle=orthogonalEdgeStyle;rounded=0;orthogonalLoop=1;jettySize=auto;html=1;" edge="1" parent="1" source="ET6uv3cH0b9Gmi0lWct8-38" target="ET6uv3cH0b9Gmi0lWct8-42">
          <mxGeometry relative="1" as="geometry">
            <mxPoint x="685" y="1010" as="targetPoint" />
          </mxGeometry>
        </mxCell>
        <mxCell id="ET6uv3cH0b9Gmi0lWct8-38" value="" style="ellipse;whiteSpace=wrap;html=1;aspect=fixed;" vertex="1" parent="1">
          <mxGeometry x="670" y="895" width="30" height="30" as="geometry" />
        </mxCell>
        <mxCell id="ET6uv3cH0b9Gmi0lWct8-42" value="END" style="ellipse;whiteSpace=wrap;html=1;" vertex="1" parent="1">
          <mxGeometry x="625" y="960" width="120" height="80" as="geometry" />
        </mxCell>
      </root>
    </mxGraphModel>
  </diagram>
</mxfile>
